<svg id="Layer_1" data-name="Layer 1" xmlns="http://www.w3.org/2000/svg" viewBox="0 0 152 40">
    <defs>
        <style>.cls-1{fill:red;}</style>
    </defs>
    <polygon points="84.94 8.85 80.86 0 66.92 0 75.49 17.69 84.94 8.85"/>
    <path d="M118,0H93.1L59,40H72.6l8.9-10.63L86.42,40h23.39L113,22.18,115.79,32l8.49-10.22ZM98.92,36.81l-8.3-17.66L105,2.55Z"/>
    <polygon points="139.29 0 116.52 34.55 127.94 34.55 136.61 21.03 133.26 40 144.78 40 151.83 0 139.29 0"/>
    <path class="cls-1" d="M18,1.47a29.7,29.7,0,0,0-.26,5.61c.27,2.64,1.91,4,4.07,4.84a4.51,4.51,0,0,0,2.46.44,2.72,2.72,0,0,0,.91-.52,6.53,6.53,0,0,1,2.71-1,11.28,11.28,0,0,1,4.37.55,16,16,0,0,1,3.62,1.35A3.46,3.46,0,0,1,37.05,14c.5.84.7,2.27,1.83,2.52a20.41,20.41,0,0,0,.12-3.7,22.3,22.3,0,0,1,.47-3.4,46.85,46.85,0,0,1,1.21-4.62c.07-.23.29-1.41.73-1.25.2.08.16.56.15.81,0,1-.11,1.7-.18,2.67a26.71,26.71,0,0,0,.22,7.15,11.63,11.63,0,0,1,.4,3.45c0,.32-.19.7-.26,1.06s0,.54-.07.77A5.62,5.62,0,0,1,41,20.64c-.06.1-.19.32-.33.59s-.34.34-.33.58A2.14,2.14,0,0,0,41.49,23c1.64.46,3.45.71,4.43,1.69a3.68,3.68,0,0,1,1.14,2.34,4.69,4.69,0,0,1-.55,2.38c-.24.53-.46,1.84-.85,2.09s-.76.07-1.1.26a8.7,8.7,0,0,0-.36,1.36c-.28.39-.69.64-1,1,.09.87-.45,1.09-1.17,1.14-2.14,1.75-6.4.59-8.21-.59-.9.64-1.9,1.18-1.8,2.82a12.41,12.41,0,0,0,2.31,1.25c1.22.41,2.73.19,3.52.91l.18.2h6.14L61.6,19.65,52.08,0h-34C18,.52,18,1,18,1.47Z"/>
    <path class="cls-1" d="M2,39.69a13.2,13.2,0,0,1,4.25-2.63A14.82,14.82,0,0,0,9.64,35.3a2.74,2.74,0,0,1,1.25-.77,7.24,7.24,0,0,1,2.64.44A4.75,4.75,0,0,0,18,33.35a5.71,5.71,0,0,0,1.43-1.76,9.31,9.31,0,0,0,.22-3.18c0-2.29.86-3.9.88-6a27.18,27.18,0,0,1-.11-3.26A11.27,11.27,0,0,1,17.08,17a5.84,5.84,0,0,1-1.61-4.44,7.55,7.55,0,0,1-1.28-4.1A15.26,15.26,0,0,1,15.1,4c.38-1.3.76-2.62,1.16-3.94H8.61L0,39.89H1.82Z"/>
</svg>
